<?xml version="1.0" standalone="no"?>
<!DOCTYPE svg PUBLIC "-//W3C//DTD SVG 20010904//EN"
 "http://www.w3.org/TR/2001/REC-SVG-20010904/DTD/svg10.dtd">
<svg version="1.0" xmlns="http://www.w3.org/2000/svg"
 width="600.000000pt" height="600.000000pt" viewBox="0 0 600.000000 600.000000"
 preserveAspectRatio="xMidYMid meet">
<metadata>
Created by potrace 1.14, written by Peter Selinger 2001-2017
</metadata>
<g transform="translate(0.000000,600.000000) scale(0.100000,-0.100000)"
fill="#000000" stroke="none">
<path d="M4085 5989 c-22 -4 -51 -10 -65 -12 -45 -9 -115 -30 -125 -39 -5 -4
-15 -8 -23 -8 -25 0 -204 -91 -288 -146 -78 -52 -254 -198 -254 -212 0 -4 -17
-25 -38 -47 -52 -54 -142 -193 -189 -291 -94 -191 -147 -453 -118 -583 6 -28
11 -31 43 -32 20 -1 44 -2 52 -3 15 -1 145 18 185 28 55 12 130 42 220 87 332
164 586 491 680 872 9 37 19 80 21 95 8 44 13 272 8 287 -6 15 -41 16 -109 4z"/>
<path d="M3910 4535 c-143 -24 -256 -59 -509 -157 -331 -128 -386 -131 -651
-31 -52 20 -114 44 -137 54 -23 11 -45 19 -48 19 -4 0 -21 6 -38 14 -59 26
-205 69 -277 81 -19 3 -43 8 -53 11 -26 8 -213 8 -287 -1 -483 -55 -910 -365
-1140 -830 -58 -117 -120 -275 -135 -343 -30 -134 -55 -274 -62 -342 -10 -106
-10 -441 0 -535 18 -167 21 -188 63 -414 14 -73 78 -303 114 -411 160 -475
367 -834 735 -1279 28 -34 155 -162 188 -188 158 -131 292 -182 467 -178 131
3 202 21 405 102 229 93 304 115 420 129 237 27 418 -4 678 -115 202 -87 258
-101 422 -108 90 -3 123 0 185 16 98 28 88 24 147 53 175 86 356 271 580 593
154 221 242 375 341 597 48 107 125 318 120 324 -2 1 -34 18 -72 38 -260 136
-498 376 -608 615 -191 416 -155 909 95 1286 81 123 219 267 331 348 113 81
107 66 56 133 -68 88 -191 207 -285 274 -172 121 -431 222 -635 246 -97 12
-338 11 -410 -1z"/>
</g>
</svg>
